<?xml version="1.0" encoding="UTF-8"?>
<svg viewBox="0 0 744.09003 600" xmlns="http://www.w3.org/2000/svg" xmlns:xlink="http://www.w3.org/1999/xlink">
 <defs>
  <filter id="i">
   <feGaussianBlur stdDeviation="1.1041"/>
  </filter>
  <linearGradient id="a">
   <stop stop-color="#00f" offset="0"/>
   <stop offset="1"/>
  </linearGradient>
  <linearGradient id="h" x1="394.24" x2="392.56" y1="536.66" y2="543.39" gradientUnits="userSpaceOnUse">
   <stop offset="0"/>
   <stop stop-color="#000080" offset="1"/>
  </linearGradient>
  <linearGradient id="g" x1="400.41" x2="415.81" y1="498.32" y2="501.92" gradientUnits="userSpaceOnUse">
   <stop offset="0"/>
   <stop stop-color="#e6e6e6" offset=".1558"/>
   <stop stop-color="#fff" offset=".2962"/>
   <stop stop-color="#666" offset=".4414"/>
   <stop stop-color="#999" offset=".5207"/>
   <stop offset=".5776"/>
   <stop offset="1"/>
  </linearGradient>
  <linearGradient id="f" x1="407.93" x2="417.18" y1="466.4" y2="468.92" gradientUnits="userSpaceOnUse">
   <stop offset="0"/>
   <stop stop-color="#4d4d4d" offset=".4681"/>
   <stop offset="1"/>
  </linearGradient>
  <linearGradient id="e" x1="331.66" x2="342.23" y1="795.62" y2="798.02" gradientUnits="userSpaceOnUse">
   <stop stop-color="#502d16" offset="0"/>
   <stop stop-color="#d45500" offset=".558"/>
   <stop stop-color="#ffe6d5" offset="1"/>
  </linearGradient>
  <radialGradient id="d" cx="165.53" cy="473.13" r="119.38" gradientTransform="matrix(2.1542 -.08983 .05935 1.4235 -270.88 -43.152)" gradientUnits="userSpaceOnUse">
   <stop offset="0"/>
   <stop stop-color="#00f" offset="1"/>
  </radialGradient>
  <radialGradient id="c" cx="350.23" cy="468.25" r="97.5" gradientTransform="matrix(1.7312 .10817 -.201 3.2171 -145.46 -912.12)" gradientUnits="userSpaceOnUse" xlink:href="#a"/>
  <radialGradient id="b" cx="481.89" cy="485.57" r="88.52" gradientTransform="matrix(1.8226 -.06615 .09319 2.5676 -380.25 -567.93)" gradientUnits="userSpaceOnUse" xlink:href="#a"/>
 </defs>
 <g transform="translate(0 -452.36)">
  <path d="m72.414 629.84c-4.0153 2.3825-8.138 4.765-11.724 7.1476-0.36337 2.038-1.5032 0.67444-2.2326 1.5582-0.6502 0.93389-0.46091 2.0435 1.0353 2.3284 1.4106-0.33575 0.7042-2.1008 2.4642-1.7428l12.033-7.8596-1.576-1.2619"/>
  <path d="m638.4 755.18 8.3653 10.819c2.0533 0.26338 0.74708 1.4685 1.6656 2.1537 0.96453 0.60383 2.0635 0.36054 2.275-1.1478-0.40383-1.3927-2.1326-0.60073-1.861-2.3762l-8.5744-10.948-1.8702 1.4994"/>
  <path d="m467.18 725.8-0.0486 13.676c1.458 1.4696-0.31299 1.6176-9e-3 2.7226 0.38988 1.0691 1.4064 1.5525 2.5001 0.49245 0.5372-1.3469-1.3133-1.7845-8e-3 -3.0183l-0.037-13.906-2.3968 0.0336"/>
  <path d="m357.61 686.56-50.444 209.47 10.569 4.8044 49.003-214.76-9.128 0.48043" fill="url(#e)"/>
  <path d="m209.8 667.67-8.396 10.795c0.25599 2.0542-1.2363 1.0891-1.6715 2.1491-0.34473 1.0845 0.16444 2.0884 1.6779 1.9177 1.2483-0.73777 0.051-2.2151 1.8381-2.394l8.4691-11.03-1.9176-1.4382"/>
  <path d="m64.131 634.86c15.942-10.358 118.24-134.8 321.02-99.521-104.06-4.6971-146.24 101.43-178.78 139-8.4014-20.014-106.71-49.921-142.24-39.483z" fill="url(#d)"/>
  <path d="m646.26 761.46c-16.182-12.16-52.785-181.28-239.71-221.91 51.21 47.671 52.974 132.89 62.455 193.52 18.49-19.533 131.63 5.9378 177.26 28.387z" fill="url(#b)"/>
  <path d="m361.69 687.04-50.204 209.95 3.3629 0.48042 49.483-208.99-2.6423-1.4413z" fill="#fff"/>
  <path d="m415.74 542.91-31.708-7.687c-96.977-4.5371-135.73 77.551-177.72 139.07 81.521-2.8915 223.48 30.766 262.75 58.866-7.4211-70.321-10.965-158.44-64.376-193.62" fill="url(#c)"/>
  <path d="m391.05 536.41 16.277-65.568c6.3191-9.0648 7.1268-3.7384 7.8068 1.9218l-14.33 65.948-9.2094-1.9456" fill="url(#g)"/>
  <path d="m406.97 469.88 9.2481 2.6424 1.5614-7.8071c-2.2543-2.4453-5.1966-2.8264-8.4073-2.4022l-2.4021 7.5669" fill="url(#f)"/>
  <path d="m321.55 890.46c-8.3326-0.18533-6.3691-1.2862-13.5-3.5894-2.9396 5.4786-21.535 83.457-21.535 90.098 0 23.482 19.018 42.543 42.499 42.543s42.541-19.06 42.541-42.543c0-5.4407-2.9579-14.011-4.8222-18.791-3.6823-6.7808-14.951-2.3408-14.725 4.414 2.3375 4.2725 4.618 8.6807 4.618 13.897 0 16.584-11.029 28.616-27.612 28.616s-27.132-12.032-27.132-28.616c0-7.8793 2.0646-10.711 4.1436-19.908l15.524-66.12z" fill-rule="evenodd" stroke="#000"/>
  <path transform="matrix(1.3452 0 0 1.3452 -105.76 -3.8812)" d="m311.97 666.81c-0.0622 0.19811-0.0635 0.13567-0.125 0.34375-0.57059 1.9292-1.2665 4.5091-2.0625 7.5312-1.5921 6.0443-3.5163 13.805-5.375 21.594s-3.6789 15.597-5 21.75c-0.66053 3.0766-1.1903 5.738-1.5625 7.75s-0.53125 3.699-0.53125 3.5312c0 15.639 12.584 28.25 28.219 28.25s28.25-12.615 28.25-28.25c0-2.7455-1.8888-8.9292-3.2188-12.406-0.24912-0.43986-0.41269-0.52362-0.78125-0.625-0.38475-0.10583-1.0254-0.10072-1.6875 0.125-1.1492 0.3918-1.7721 1.1925-1.9375 1.8125 1.601 2.9926 3.2812 6.4412 3.2812 10.75 0 13.821-9.9548 24.625-23.906 24.625-6.9757 0-13.012-2.6259-17.156-7.0938s-6.375-10.655-6.375-17.531c0-3.2191 0.48003-5.6373 1.0938-7.9062s1.3255-4.3959 2.0625-7.6562a3.3654 3.3654 0 0 1 0 -0.0312l10.625-45.344c-0.94277-0.15921-1.7515-0.379-2.4375-0.65625-0.45595-0.18428-1.0118-0.39081-1.375-0.5625z" fill="#fff" fill-rule="evenodd" filter="url(#i)" stroke="#000" stroke-width=".74338"/>
  <path d="m206.03 673.67c42.73-70.975 90.115-136.83 164.76-138.95" fill="none" stroke="#4541d3"/>
  <path d="m70.486 630.18c81.214-83.426 206.77-114.1 298.94-96.82" fill="none" stroke="#4541d3"/>
  <path d="m468.62 732.44c-1.5336-18.776-1.0875-150.55-59.109-187.53" fill="none" stroke="#4541d3"/>
  <path d="m642.21 757.58c-14.824-36.364-76.581-184.4-224.21-214.36" fill="none" stroke="#4541d3"/>
  <path d="m365.66 532.17c42.547 6.0001 44.186 7.4639 53.436 10.261l-6.0052-0.36032 0.96085 4.3239-4.3043-2.6332-1.4559 5.1423-5.7256-5.512-3.0469 6.8261-4.7542-7.3407-5.4548 7.2409-1.046-8.0096-8.4583 5.3742 1.2256-7.0083-9.3742 1.6715 1.6803-3.6756-10.09 1.1982 7.8068-5.6451-5.3944-1.8532z" fill="url(#h)"/>
  <path d="m368.58 532.68c37.371 4.3821 40.7 7.2605 48.825 9.3031l-4.935-1.622 0.33439 2.6484-3.2711-2.6026-1.2788 3.7556-5.029-4.0256-2.6762 4.9854-4.1758-5.3612-4.7912 5.2883-0.91874-5.8497-7.4293 3.925 1.0765-5.1184-8.2338 1.2208 1.4759-2.6844-8.8626 0.87508 6.5174-3.1037-6.6272-1.634z"/>
 </g>
</svg>
